REM DIRINDEX 1\2,1\3,1\4,1\5
REM DIRNAME "folder01","folder02","folder03","folder04","folder05"
TITLE ""
FILE "1Q_t_1010-1019.mp3" MP3
  TRACK 01 AUDIO
    TITLE "3:cjc172_3989"
    INDEX 01 00:00:00
  TRACK 02 AUDIO
    TITLE "0:"
    INDEX 01 00:01:06
  TRACK 03 AUDIO
    TITLE "4:cjc172_3990"
    INDEX 01 00:01:16
  TRACK 04 AUDIO
    TITLE "0:"
    INDEX 01 00:02:46
  TRACK 05 AUDIO
    TITLE "5:cjc172_3991"
    INDEX 01 00:02:52
  TRACK 06 AUDIO
    TITLE "0:"
    INDEX 01 00:06:58
  TRACK 07 AUDIO
    TITLE "3:cjc172_3992"
    INDEX 01 00:07:30
  TRACK 08 AUDIO
    TITLE "0:"
    INDEX 01 00:08:67
  TRACK 09 AUDIO
    TITLE "4:cjc172_3993"
    INDEX 01 00:09:01
  TRACK 10 AUDIO
    TITLE "0:"
    INDEX 01 00:12:13
  TRACK 11 AUDIO
    TITLE "5:cjc172_3994"
    INDEX 01 00:12:21
  TRACK 12 AUDIO
    TITLE "0:"
    INDEX 01 00:17:73
  TRACK 13 AUDIO
    TITLE "3:cjc172_3995"
    INDEX 01 00:18:45
  TRACK 14 AUDIO
    TITLE "0:"
    INDEX 01 00:19:57
  TRACK 15 AUDIO
    TITLE "4:cjc172_3996"
    INDEX 01 00:19:64
  TRACK 16 AUDIO
    TITLE "0:"
    INDEX 01 00:21:28
  TRACK 17 AUDIO
    TITLE "5:cjc172_3997"
    INDEX 01 00:21:36
  TRACK 18 AUDIO
    TITLE "0:"
    INDEX 01 00:25:42
  TRACK 19 AUDIO
    TITLE "3:cjc172_3998"
    INDEX 01 00:26:14
  TRACK 20 AUDIO
    TITLE "0:"
    INDEX 01 00:27:27
  TRACK 21 AUDIO
    TITLE "4:cjc172_3999"
    INDEX 01 00:27:37
  TRACK 22 AUDIO
    TITLE "0:"
    INDEX 01 00:30:25
  TRACK 23 AUDIO
    TITLE "5:cjc172_4000"
    INDEX 01 00:30:31
  TRACK 24 AUDIO
    TITLE "0:"
    INDEX 01 00:36:57
  TRACK 25 AUDIO
    TITLE "3:cjc172_4001"
    INDEX 01 00:37:27
  TRACK 26 AUDIO
    TITLE "0:"
    INDEX 01 00:38:46
  TRACK 27 AUDIO
    TITLE "4:cjc172_4002"
    INDEX 01 00:38:54
  TRACK 28 AUDIO
    TITLE "0:"
    INDEX 01 00:41:27
  TRACK 29 AUDIO
    TITLE "5:cjc172_4003"
    INDEX 01 00:41:33
  TRACK 30 AUDIO
    TITLE "0:"
    INDEX 01 00:45:58
  TRACK 31 AUDIO
    TITLE "3:cjc172_4004"
    INDEX 01 00:46:28
  TRACK 32 AUDIO
    TITLE "0:"
    INDEX 01 00:48:01
  TRACK 33 AUDIO
    TITLE "4:cjc172_4005"
    INDEX 01 00:48:09
  TRACK 34 AUDIO
    TITLE "0:"
    INDEX 01 00:52:54
  TRACK 35 AUDIO
    TITLE "5:cjc172_4006"
    INDEX 01 00:52:60
  TRACK 36 AUDIO
    TITLE "0:"
    INDEX 01 00:57:04
  TRACK 37 AUDIO
    TITLE "3:cjc172_4007"
    INDEX 01 00:57:49
  TRACK 38 AUDIO
    TITLE "0:"
    INDEX 01 00:58:68
  TRACK 39 AUDIO
    TITLE "4:cjc172_4008"
    INDEX 01 00:59:03
  TRACK 40 AUDIO
    TITLE "0:"
    INDEX 01 01:00:50
  TRACK 41 AUDIO
    TITLE "5:cjc172_4009"
    INDEX 01 01:00:56
  TRACK 42 AUDIO
    TITLE "0:"
    INDEX 01 01:04:65
  TRACK 43 AUDIO
    TITLE "3:cjc172_4010"
    INDEX 01 01:05:37
  TRACK 44 AUDIO
    TITLE "0:"
    INDEX 01 01:06:56
  TRACK 45 AUDIO
    TITLE "4:cjc172_4011"
    INDEX 01 01:06:64
  TRACK 46 AUDIO
    TITLE "0:"
    INDEX 01 01:09:45
  TRACK 47 AUDIO
    TITLE "5:cjc172_4012"
    INDEX 01 01:09:55
  TRACK 48 AUDIO
    TITLE "0:"
    INDEX 01 01:14:52
  TRACK 49 AUDIO
    TITLE "3:cjc172_4013"
    INDEX 01 01:15:24
  TRACK 50 AUDIO
    TITLE "0:"
    INDEX 01 01:16:27
  TRACK 51 AUDIO
    TITLE "4:cjc172_4014"
    INDEX 01 01:16:37
  TRACK 52 AUDIO
    TITLE "0:"
    INDEX 01 01:17:72
  TRACK 53 AUDIO
    TITLE "5:cjc172_4015"
    INDEX 01 01:18:06
  TRACK 54 AUDIO
    TITLE "0:"
    INDEX 01 01:23:17
  TRACK 55 AUDIO
    TITLE "3:cjc172_4016"
    INDEX 01 01:23:64
  TRACK 56 AUDIO
    TITLE "0:"
    INDEX 01 01:24:66
  TRACK 57 AUDIO
    TITLE "4:cjc172_4017"
    INDEX 01 01:25:01
  TRACK 58 AUDIO
    TITLE "0:"
    INDEX 01 01:28:26
  TRACK 59 AUDIO
    TITLE "5:cjc172_4018"
    INDEX 01 01:28:34
  TRACK 60 AUDIO
    TITLE "0:"
    INDEX 01 01:34:27
